<svg xmlns="http://www.w3.org/2000/svg" version="1.1" xmlns:xlink="http://www.w3.org/1999/xlink" xmlns:svgjs="http://svgjs.dev/svgjs" viewBox="0 0 800 800"><symbol id="SvgjsSymbol1018"><polygon points="0,25 50,0 100,25 50,50"></polygon></symbol><symbol id="SvgjsSymbol1019"><polygon points="0,25 50,50 50,100 0,75"></polygon></symbol><symbol id="SvgjsSymbol1020"><polygon points="50,50 100,25 100,75 50,100"></polygon></symbol><g shape-rendering="crispEdges"><g transform="translate(0 0)"><use xlink:href="#SvgjsSymbol1027" x="306.25" y="656.25" fill="#73a942"></use><use xlink:href="#SvgjsSymbol1028" x="306.25" y="656.25" fill="#a4db71"></use><use xlink:href="#SvgjsSymbol1029" x="306.25" y="656.25" fill="#437a11"></use></g><g transform="translate(0 0)"><use xlink:href="#SvgjsSymbol1027" x="218.75" y="525" fill="#73a942"></use><use xlink:href="#SvgjsSymbol1028" x="218.75" y="525" fill="#a4db71"></use><use xlink:href="#SvgjsSymbol1029" x="218.75" y="525" fill="#437a11"></use></g><g transform="translate(0 0)"><use xlink:href="#SvgjsSymbol1027" x="218.75" y="612.5" fill="#73a942"></use><use xlink:href="#SvgjsSymbol1028" x="218.75" y="612.5" fill="#a4db71"></use><use xlink:href="#SvgjsSymbol1029" x="218.75" y="612.5" fill="#437a11"></use></g><g transform="translate(0 0)"><use xlink:href="#SvgjsSymbol1027" x="306.25" y="481.25" fill="#73a942"></use><use xlink:href="#SvgjsSymbol1028" x="306.25" y="481.25" fill="#a4db71"></use><use xlink:href="#SvgjsSymbol1029" x="306.25" y="481.25" fill="#437a11"></use></g><g transform="translate(0 0)"><use xlink:href="#SvgjsSymbol1027" x="393.75" y="612.5" fill="#73a942"></use><use xlink:href="#SvgjsSymbol1028" x="393.75" y="612.5" fill="#a4db71"></use><use xlink:href="#SvgjsSymbol1029" x="393.75" y="612.5" fill="#437a11"></use></g><g transform="translate(0 0)"><use xlink:href="#SvgjsSymbol1027" x="481.25" y="481.25" fill="#73a942"></use><use xlink:href="#SvgjsSymbol1028" x="481.25" y="481.25" fill="#a4db71"></use><use xlink:href="#SvgjsSymbol1029" x="481.25" y="481.25" fill="#437a11"></use></g><g transform="translate(0 0)"><use xlink:href="#SvgjsSymbol1027" x="131.25" y="481.25" fill="#73a942"></use><use xlink:href="#SvgjsSymbol1028" x="131.25" y="481.25" fill="#a4db71"></use><use xlink:href="#SvgjsSymbol1029" x="131.25" y="481.25" fill="#437a11"></use></g><g transform="translate(0 0)"><use xlink:href="#SvgjsSymbol1027" x="131.25" y="568.75" fill="#73a942"></use><use xlink:href="#SvgjsSymbol1028" x="131.25" y="568.75" fill="#a4db71"></use><use xlink:href="#SvgjsSymbol1029" x="131.25" y="568.75" fill="#437a11"></use></g><g transform="translate(0 0)"><use xlink:href="#SvgjsSymbol1027" x="481.25" y="568.75" fill="#73a942"></use><use xlink:href="#SvgjsSymbol1028" x="481.25" y="568.75" fill="#a4db71"></use><use xlink:href="#SvgjsSymbol1029" x="481.25" y="568.75" fill="#437a11"></use></g><g transform="translate(0 0)"><use xlink:href="#SvgjsSymbol1027" x="306.25" y="306.25" fill="#73a942"></use><use xlink:href="#SvgjsSymbol1028" x="306.25" y="306.25" fill="#a4db71"></use><use xlink:href="#SvgjsSymbol1029" x="306.25" y="306.25" fill="#437a11"></use></g><g transform="translate(0 0)"><use xlink:href="#SvgjsSymbol1027" x="393.75" y="437.5" fill="#73a942"></use><use xlink:href="#SvgjsSymbol1028" x="393.75" y="437.5" fill="#a4db71"></use><use xlink:href="#SvgjsSymbol1029" x="393.75" y="437.5" fill="#437a11"></use></g><g transform="translate(0 0)"><use xlink:href="#SvgjsSymbol1027" x="218.75" y="437.5" fill="#73a942"></use><use xlink:href="#SvgjsSymbol1028" x="218.75" y="437.5" fill="#a4db71"></use><use xlink:href="#SvgjsSymbol1029" x="218.75" y="437.5" fill="#437a11"></use></g><g transform="translate(0 0)"><use xlink:href="#SvgjsSymbol1027" x="131.25" y="393.75" fill="#73a942"></use><use xlink:href="#SvgjsSymbol1028" x="131.25" y="393.75" fill="#a4db71"></use><use xlink:href="#SvgjsSymbol1029" x="131.25" y="393.75" fill="#437a11"></use></g><g transform="translate(0 0)"><use xlink:href="#SvgjsSymbol1027" x="481.25" y="393.75" fill="#73a942"></use><use xlink:href="#SvgjsSymbol1028" x="481.25" y="393.75" fill="#a4db71"></use><use xlink:href="#SvgjsSymbol1029" x="481.25" y="393.75" fill="#437a11"></use></g><g transform="translate(0 0)"><use xlink:href="#SvgjsSymbol1027" x="568.75" y="525" fill="#73a942"></use><use xlink:href="#SvgjsSymbol1028" x="568.75" y="525" fill="#a4db71"></use><use xlink:href="#SvgjsSymbol1029" x="568.75" y="525" fill="#437a11"></use></g><g transform="translate(0 0)"><use xlink:href="#SvgjsSymbol1027" x="43.75" y="525" fill="#73a942"></use><use xlink:href="#SvgjsSymbol1028" x="43.75" y="525" fill="#a4db71"></use><use xlink:href="#SvgjsSymbol1029" x="43.75" y="525" fill="#437a11"></use></g><g transform="translate(0 0)"><use xlink:href="#SvgjsSymbol1027" x="43.75" y="350" fill="#73a942"></use><use xlink:href="#SvgjsSymbol1028" x="43.75" y="350" fill="#a4db71"></use><use xlink:href="#SvgjsSymbol1029" x="43.75" y="350" fill="#437a11"></use></g><g transform="translate(0 0)"><use xlink:href="#SvgjsSymbol1027" x="568.75" y="350" fill="#73a942"></use><use xlink:href="#SvgjsSymbol1028" x="568.75" y="350" fill="#a4db71"></use><use xlink:href="#SvgjsSymbol1029" x="568.75" y="350" fill="#437a11"></use></g><g transform="translate(0 0)"><use xlink:href="#SvgjsSymbol1027" x="481.25" y="306.25" fill="#73a942"></use><use xlink:href="#SvgjsSymbol1028" x="481.25" y="306.25" fill="#a4db71"></use><use xlink:href="#SvgjsSymbol1029" x="481.25" y="306.25" fill="#437a11"></use></g><g transform="translate(0 0)"><use xlink:href="#SvgjsSymbol1027" x="131.25" y="306.25" fill="#73a942"></use><use xlink:href="#SvgjsSymbol1028" x="131.25" y="306.25" fill="#a4db71"></use><use xlink:href="#SvgjsSymbol1029" x="131.25" y="306.25" fill="#437a11"></use></g><g transform="translate(0 0)"><use xlink:href="#SvgjsSymbol1027" x="218.75" y="175" fill="#73a942"></use><use xlink:href="#SvgjsSymbol1028" x="218.75" y="175" fill="#a4db71"></use><use xlink:href="#SvgjsSymbol1029" x="218.75" y="175" fill="#437a11"></use></g><g transform="translate(0 0)"><use xlink:href="#SvgjsSymbol1027" x="393.75" y="175" fill="#73a942"></use><use xlink:href="#SvgjsSymbol1028" x="393.75" y="175" fill="#a4db71"></use><use xlink:href="#SvgjsSymbol1029" x="393.75" y="175" fill="#437a11"></use></g><g transform="translate(0 0)"><use xlink:href="#SvgjsSymbol1027" x="306.25" y="43.75" fill="#73a942"></use><use xlink:href="#SvgjsSymbol1028" x="306.25" y="43.75" fill="#a4db71"></use><use xlink:href="#SvgjsSymbol1029" x="306.25" y="43.75" fill="#437a11"></use></g><g transform="translate(0 0)"><use xlink:href="#SvgjsSymbol1027" x="131.25" y="43.75" fill="#73a942"></use><use xlink:href="#SvgjsSymbol1028" x="131.25" y="43.75" fill="#a4db71"></use><use xlink:href="#SvgjsSymbol1029" x="131.25" y="43.75" fill="#437a11"></use></g><g transform="translate(0 0)"><use xlink:href="#SvgjsSymbol1027" x="481.25" y="131.25" fill="#73a942"></use><use xlink:href="#SvgjsSymbol1028" x="481.25" y="131.25" fill="#a4db71"></use><use xlink:href="#SvgjsSymbol1029" x="481.25" y="131.25" fill="#437a11"></use></g><g transform="translate(0 0)"><use xlink:href="#SvgjsSymbol1027" x="656.25" y="131.25" fill="#73a942"></use><use xlink:href="#SvgjsSymbol1028" x="656.25" y="131.25" fill="#a4db71"></use><use xlink:href="#SvgjsSymbol1029" x="656.25" y="131.25" fill="#437a11"></use></g><g transform="translate(0 0)"><use xlink:href="#SvgjsSymbol1027" x="743.75" y="262.5" fill="#73a942"></use><use xlink:href="#SvgjsSymbol1028" x="743.75" y="262.5" fill="#a4db71"></use><use xlink:href="#SvgjsSymbol1029" x="743.75" y="262.5" fill="#437a11"></use></g><g transform="translate(0 0)"><use xlink:href="#SvgjsSymbol1027" x="43.75" y="175" fill="#73a942"></use><use xlink:href="#SvgjsSymbol1028" x="43.75" y="175" fill="#a4db71"></use><use xlink:href="#SvgjsSymbol1029" x="43.75" y="175" fill="#437a11"></use></g><g transform="translate(0 0)"><use xlink:href="#SvgjsSymbol1027" x="568.75" y="700" fill="#73a942"></use><use xlink:href="#SvgjsSymbol1028" x="568.75" y="700" fill="#a4db71"></use><use xlink:href="#SvgjsSymbol1029" x="568.75" y="700" fill="#437a11"></use></g><g><use xlink:href="#SvgjsSymbol1027" x="43.75" y="700" fill="#73a942"></use><use xlink:href="#SvgjsSymbol1028" x="43.75" y="700" fill="#a4db71"></use><use xlink:href="#SvgjsSymbol1029" x="43.75" y="700" fill="#437a11"></use></g><g><use xlink:href="#SvgjsSymbol1027" x="0" y="481.25" fill="#73a942"></use><use xlink:href="#SvgjsSymbol1028" x="0" y="481.25" fill="#a4db71"></use><use xlink:href="#SvgjsSymbol1029" x="0" y="481.25" fill="#437a11"></use></g><g><use xlink:href="#SvgjsSymbol1027" x="743.75" y="525" fill="#73a942"></use><use xlink:href="#SvgjsSymbol1028" x="743.75" y="525" fill="#a4db71"></use><use xlink:href="#SvgjsSymbol1029" x="743.75" y="525" fill="#437a11"></use></g></g><g></g><symbol id="SvgjsSymbol1021"><polygon points="0,31.25 62.5,0 125,31.25 62.5,62.5"></polygon></symbol><symbol id="SvgjsSymbol1022"><polygon points="0,31.25 62.5,62.5 62.5,125 0,93.75"></polygon></symbol><symbol id="SvgjsSymbol1023"><polygon points="62.5,62.5 125,31.25 125,93.75 62.5,125"></polygon></symbol><symbol id="SvgjsSymbol1024"><polygon points="0,37.5 75,0 150,37.5 75,75"></polygon></symbol><symbol id="SvgjsSymbol1025"><polygon points="0,37.5 75,75 75,150 0,112.5"></polygon></symbol><symbol id="SvgjsSymbol1026"><polygon points="75,75 150,37.5 150,112.5 75,150"></polygon></symbol><symbol id="SvgjsSymbol1027"><polygon points="0,43.75 87.5,0 175,43.75 87.5,87.5"></polygon></symbol><symbol id="SvgjsSymbol1028"><polygon points="0,43.75 87.5,87.5 87.5,175 0,131.25"></polygon></symbol><symbol id="SvgjsSymbol1029"><polygon points="87.5,87.5 175,43.75 175,131.25 87.5,175"></polygon></symbol></svg>